<?xml version="1.0" encoding="UTF-8" standalone="no"?>
<!-- Created with Inkscape (http://www.inkscape.org/) -->

<svg
   width="50.341351mm"
   height="50.341351mm"
   viewBox="0 0 50.341351 50.341351"
   version="1.1"
   id="svg1"
   xml:space="preserve"
   sodipodi:docname="haircut-r.svg"
   inkscape:version="1.4.2 (f4327f4, 2025-05-13)"
   xmlns:inkscape="http://www.inkscape.org/namespaces/inkscape"
   xmlns:sodipodi="http://sodipodi.sourceforge.net/DTD/sodipodi-0.dtd"
   xmlns="http://www.w3.org/2000/svg"
   xmlns:svg="http://www.w3.org/2000/svg"><sodipodi:namedview
     id="namedview1"
     pagecolor="#ffffff"
     bordercolor="#666666"
     borderopacity="1.0"
     inkscape:showpageshadow="2"
     inkscape:pageopacity="0.0"
     inkscape:pagecheckerboard="0"
     inkscape:deskcolor="#d1d1d1"
     inkscape:document-units="mm"
     inkscape:zoom="1.4142136"
     inkscape:cx="83.085046"
     inkscape:cy="11.667262"
     inkscape:window-width="1366"
     inkscape:window-height="705"
     inkscape:window-x="-8"
     inkscape:window-y="-8"
     inkscape:window-maximized="1"
     inkscape:current-layer="svg1" /><defs
     id="defs1" /><g
     id="layer1"
     transform="translate(-8.8523133,-39.710848)"><path
       id="rect10"
       style="fill:#000000;fill-rule:evenodd;stroke-width:0.341;stroke-linecap:round;stroke-linejoin:round;stroke-opacity:0.952448;paint-order:stroke fill markers"
       d="m 10.866857,49.168296 v 3.643188 c 0,0.160121 -0.0076,0.223871 0.105741,0.214925 0.237728,-0.01877 0.667087,-0.80972 1.792851,-0.80972 0.960725,0 1.667082,0.571725 1.667082,2.355928 v 11.231356 c 0,0.05805 -0.04922,0.11625 -0.105937,0.132808 h 2.748669 c -0.648724,-0.08484 -1.204731,-0.335998 -1.487247,-0.656807 -0.469372,-0.509559 -0.323327,-1.145541 -0.402043,-1.79679 -0.203302,-0.655622 0.167421,-1.428754 0.993221,-2.027266 0.972428,-0.757253 2.466016,-1.097277 3.866431,-1.629358 0.816291,-0.214306 1.648709,-0.781654 1.841231,-1.459343 0.195812,-0.322649 0.11317,-0.754852 -0.350366,-0.776696 -0.476625,0.04029 -0.716294,0.488538 -0.775663,0.778764 -0.134452,0.32615 -0.09729,0.730542 -0.540536,0.950329 -1.236992,-0.02111 -2.469288,-0.04209 -3.696932,-0.06305 -0.375776,0.005 -0.917664,0.05641 -1.081588,-0.266134 -0.02019,-0.919831 -0.04469,-1.97489 0.486792,-3.042708 1.088274,-2.181169 3.996524,-3.872134 6.849195,-4.103626 0.531587,-0.04288 1.058446,-0.05913 1.569413,-0.03927 0.510967,0.01986 1.006233,0.07591 1.474845,0.177767 2.662319,0.442974 3.832776,2.589078 2.785877,4.830196 l -3.701066,6.039425 c -0.09922,0.228323 -0.391242,0.470773 -0.330213,0.669727 0.06211,0.10159 0.340049,0.08277 0.516248,0.114721 l 6.680729,-9.230444 c 0.137201,-0.189563 0.356804,-0.326078 0.537952,-0.326078 h 4.287077 c 0.181145,0 0.19062,0.136272 0.07958,0.271818 L 27.187823,65.93678 h 0.850078 L 41.17405,49.9021 c 0.13117,-0.160121 0.33921,-0.274919 0.476457,-0.274919 h 5.10098 c 2.012947,0 3.140322,1.555829 0.854212,4.346505 -1.011885,1.235218 -3.09552,3.49968 -5.530929,3.819922 l -0.03772,0.04547 c 1.455552,0.545862 1.352504,1.410606 0.533818,2.645317 L 51.673152,49.168296 H 40.593724 L 37.5536,52.906569 c -0.139072,0.170996 -0.377014,0.312642 -0.561206,0.312642 h -3.745508 c -0.153494,0 -0.182782,-0.1704 -0.05788,-0.341581 L 35.8953,49.168296 Z m 31.24047,5.262728 c -0.114372,0 -0.239485,0.06842 -0.351916,0.205672 l -1.723926,2.104781 c -0.13117,0.160121 -0.12264,0.205672 -0.0083,0.205672 0.548985,0 1.073823,-0.640181 1.935799,-1.692403 0.430988,-0.526111 0.354181,-0.823722 0.148311,-0.823722 z m -31.495235,1.422652 c -0.182995,0 -0.365869,0.11422 -0.365869,0.457336 v 9.447486 c 0,0.07931 -0.05172,0.158574 -0.125057,0.178283 h 0.977201 c -0.0707,-0.01688 -0.119889,-0.07803 -0.119889,-0.155546 v -9.470223 c 0,-0.343116 -0.183391,-0.457336 -0.366386,-0.457336 z m 27.799337,3.060795 c -0.137247,0 -0.253819,0.114281 -0.38499,0.274402 l -5.527311,6.747908 h 1.442806 c 1.6e-5,-0.553656 0.402312,-1.359505 1.256254,-2.40192 L 38.0838,60.012595 c 0.599636,-0.731981 0.579247,-1.098124 0.327629,-1.098124 z m -17.915703,3.178617 c -0.34741,0.02565 -0.678493,0.197925 -0.834574,0.395325 -0.231697,0.505127 -0.323429,0.982193 -0.426331,1.429887 -0.07985,0.227138 0.554431,0.280979 0.761194,0.07906 0.15742,-0.314232 0.2422,-0.643107 0.356051,-0.985987 0.02199,-0.283786 0.347325,-0.610006 0.180867,-0.891418 z m 3.392558,3.208073 c -0.486396,0.294976 -1.113063,0.528227 -1.761649,0.63562 h 1.301729 z m -4.375443,0.197404 c -0.0503,2.7e-5 -0.105539,0.0072 -0.165882,0.02326 -0.344356,0.209078 -0.814594,0.356727 -1.300179,0.414961 h 2.481503 c -0.234766,-0.04678 -0.436745,-0.119803 -0.582394,-0.223242 -0.08632,-0.08459 -0.215093,-0.215089 -0.433048,-0.214974 z"
       sodipodi:nodetypes="csssssccccccccccccccsccccccssccccsssccccccssccccccssccsssccsssscccccscccccccccccsccccss" /><path
       style="fill:#000000;fill-rule:evenodd;stroke:none;stroke-width:0.111363;stroke-linecap:round;stroke-linejoin:round;stroke-opacity:0.952448;paint-order:stroke fill markers"
       d="m 16.76408,89.060689 c 1.091403,0.303063 2.249857,0.214516 3.320495,-0.119791 0.379421,-0.092 0.703697,-0.330518 1.085697,-0.420867 0.70686,-0.404153 1.543031,-0.449112 2.330648,-0.34325 0.290531,-0.194459 0.475093,-0.602668 0.505526,-0.94759 -0.173862,-0.338481 -0.32522,-0.708612 -0.193237,-1.09928 0.332707,-1.647376 0.942936,-3.251368 0.980309,-4.946481 0.157596,-1.372959 0.915574,-2.686123 2.092325,-3.41926 1.538868,-1.188569 3.28347,-2.150036 5.09631,-2.875427 0.423039,-0.234731 1.01123,-0.198213 1.372673,-0.512476 -0.113126,-0.58506 -0.210251,-1.228591 -0.53866,-1.731356 -0.479541,0.07298 -0.808848,0.568921 -1.213207,0.807615 -2.188787,1.724056 -4.328151,3.609137 -6.901057,4.739789 -1.169942,0.488673 -2.467397,0.318473 -3.651127,-0.01616 -2.740985,-0.479816 -5.448496,1.22233 -6.848098,3.503933 -1.113939,1.721841 -1.185525,4.149275 0.141465,5.778407 0.608662,0.778879 1.448973,1.375644 2.419938,1.60219 z m 0.06685,-0.811583 c -2.011516,-0.468302 -3.182015,-2.777837 -2.662393,-4.715816 0.24382,-1.071622 0.633584,-2.171277 1.529542,-2.872643 1.49408,-1.302092 3.569586,-2.170584 5.558914,-1.643261 1.712829,0.422605 2.925217,2.18082 2.735661,3.929595 -0.187479,1.575648 -0.987781,3.116931 -2.227235,4.118323 -1.394872,0.986279 -3.222481,1.735778 -4.934489,1.183802 z"
       id="path98" /><path
       style="fill:#000000;fill-rule:evenodd;stroke:none;stroke-width:0.111363;stroke-linecap:round;stroke-linejoin:round;stroke-opacity:0.952448;paint-order:stroke fill markers"
       d="m 41.902898,68.986728 c 1.395583,-1.593065 2.597527,-3.364779 3.88465,-5.051566 3.18441,-4.371032 6.458243,-8.695695 9.276715,-13.314681 -0.04116,-0.185923 -0.239001,0.260632 -0.310103,0.287227 -4.147143,5.333181 -8.314118,10.6526 -12.409818,16.024856 -0.457713,0.55482 -0.626679,1.353377 -0.465357,2.040901 0.0066,0.0059 0.01459,0.01265 0.02393,0.01324 z"
       id="path99" /><path
       id="path100"
       style="fill:#000000;fill-rule:evenodd;stroke:none;stroke-width:0.0139204;stroke-linecap:round;stroke-linejoin:round;stroke-opacity:0.952448;paint-order:stroke fill markers"
       d="m 49.475501,56.148538 c 0.08113,0.02559 0.108844,-0.106434 0.164419,-0.152429 1.421051,-1.889013 7.303376,-9.364957 8.703646,-11.234427 0.155794,-0.215383 0.323415,-0.423914 0.465315,-0.648444 -0.01531,-0.0318 -0.05898,0.01351 -0.07515,0.02721 -0.28789,0.296223 -0.535805,0.62856 -0.785839,0.95661 -0.969109,1.321762 -1.991771,2.603227 -3.00644,3.890059 -1.858499,2.344695 -3.700029,4.72459 -5.541274,7.126794 0.0031,0.02407 0.04149,0.01677 0.05825,0.02741 0.0059,0.0032 0.0117,0.0055 0.01705,0.0073 z" /><path
       style="fill:#000000;fill-rule:evenodd;stroke:none;stroke-width:0.0278409;stroke-linecap:round;stroke-linejoin:round;stroke-opacity:0.952448;paint-order:stroke fill markers"
       d="m 37.109327,72.329545 c 0.511085,0.148165 1.115228,0.195254 1.571106,-0.129985 0.538943,-0.378305 0.889584,-1.009244 0.955879,-1.66126 4.93e-4,-0.499605 -0.204101,-0.996675 -0.53827,-1.366019 -0.215313,-0.241245 -0.506626,-0.405302 -0.823727,-0.468204 -0.545528,-0.163186 -1.15084,-0.03359 -1.626557,0.263355 -0.578147,0.356728 -0.882361,1.055665 -0.832889,1.722577 0.02674,0.371678 0.149962,0.747948 0.378177,1.044861 0.0356,0.06966 0.151392,0.03713 0.149798,0.12981 0.0871,0.185715 0.307648,0.25612 0.472656,0.356105 0.09315,0.0481 0.192622,0.08213 0.293824,0.108771 z m 0.113882,-0.545351 c -0.242548,-0.0755 -0.530329,-0.132365 -0.66095,-0.377373 -0.422833,-0.605516 -0.285796,-1.566211 0.362935,-1.957633 0.334835,-0.196218 0.737177,-0.281673 1.12329,-0.253311 0.220991,0.037 0.405751,0.187716 0.576634,0.323664 0.302748,0.33068 0.447292,0.784002 0.48004,1.225206 0.03219,0.24983 -0.09732,0.479322 -0.253355,0.664403 -0.129632,0.141745 -0.259548,0.327264 -0.456891,0.370141 -0.03601,-0.01934 -0.08497,-0.03827 -0.09725,0.01726 -0.209033,0.123689 -0.472177,0.08064 -0.704665,0.06646 -0.12523,-0.01585 -0.248507,-0.04418 -0.369782,-0.07882 z"
       id="path101" /><g
       id="g119"
       transform="matrix(-0.27162751,-0.07877531,0.07877531,-0.27162751,-97.276083,140.8521)"
       style="fill:#000000"><path
         id="path113"
         style="fill:#000000;fill-rule:evenodd;stroke:none;stroke-width:0.393761;stroke-linecap:round;stroke-linejoin:round;stroke-opacity:0.952448;paint-order:stroke fill markers"
         d="m -431.63559,477.3267 c 0.11723,-0.041 0.25737,-0.19128 0.34054,-0.45262 8.02407,-13.35458 15.27531,-27.17189 22.35321,-41.04876 11.72755,-23.32755 21.70047,-47.47702 32.18567,-71.37392 0.58562,-0.98464 0.71806,-2.10851 -0.18091,-2.95915 -2.98418,-4.19123 -5.93486,-8.70794 -6.95293,-13.81976 -0.70527,-8.79311 5.16508,-18.35039 5.04206,-29.21766 -0.72663,6.15335 -2.94847,11.06818 -5.90896,14.801 -2.27058,8.14192 -3.35212,14.60051 -6.32093,21.72351 -2.35352,7.37185 -6.34307,14.11391 -8.59698,21.50465 0.41148,3.64369 3.1079,6.74866 3.19403,10.42957 -2.49497,7.92179 -5.92801,15.54973 -8.85353,23.32933 -8.71921,22.22275 -17.58827,44.38768 -26.41326,66.56648 -0.18056,0.40332 -0.0593,0.57725 0.11199,0.51733 z m 44.75445,-98.64014 c -0.44573,0.12029 -0.90872,0.19137 -1.37984,0.20802 -1.90643,0.40256 -3.91501,-0.005 -5.22583,-1.53411 -4.25715,-3.1697 -3.09108,-11.03631 2.08599,-12.50684 0.80074,-0.2195 1.63876,-0.2957 2.46928,-0.29567 3.7836,-0.29644 7.38439,2.92895 7.13381,6.78141 0.39202,3.28872 -1.9633,6.50514 -5.08341,7.34719 z"
         sodipodi:nodetypes="sccccccccccccsscccccs" /></g><path
       id="path1-8"
       style="fill:#000000;fill-rule:evenodd;stroke-width:0.341;stroke-linecap:round;stroke-linejoin:round;stroke-opacity:0.952448;paint-order:stroke fill markers"
       d="m 17.170556,43.323241 c 0.01015,-0.182713 -0.365869,0.11422 -0.365869,0.457336 v 5.214152 c 0,0.07931 -0.05172,0.158575 -0.125057,0.178284 h 0.977201 c -0.0044,-0.0011 -0.0087,-0.0022 -0.01292,-0.0036 -0.06366,-0.02091 -0.10697,-0.07926 -0.10697,-0.151929 v -5.236889 c 0,-0.343116 -0.376537,-0.274623 -0.366386,-0.457336 z m 1.133781,0 c -0.182995,0 -0.36587,0.11422 -0.36587,0.457336 v 5.214152 c 0,0.07931 -0.05172,0.158575 -0.125057,0.178284 h 0.977202 c -0.0707,-0.01688 -0.11989,-0.07803 -0.11989,-0.155546 v -5.23689 c 0,-0.343116 -0.18339,-0.457336 -0.366385,-0.457336 z m 1.133264,0 c -0.182995,0 -0.365869,0.11422 -0.365869,0.457336 v 5.214152 c 0,0.07931 -0.05172,0.158575 -0.125057,0.178284 h 0.977201 c -0.0707,-0.01688 -0.119889,-0.07803 -0.119889,-0.155546 v -5.23689 c 0,-0.343116 -0.183391,-0.457336 -0.366386,-0.457336 z m 1.133781,0 c -0.182995,0 -0.365869,0.11422 -0.365869,0.457336 v 5.214152 c 0,0.07931 -0.05172,0.158575 -0.125057,0.178284 h 0.977201 c -0.0707,-0.01688 -0.119889,-0.07803 -0.119889,-0.155546 v -5.23689 c 0,-0.343116 -0.183391,-0.457336 -0.366386,-0.457336 z m 1.133781,0 c -0.182995,0 -0.36587,0.11422 -0.36587,0.457336 v 5.214152 c 0,0.07931 -0.05172,0.158575 -0.125057,0.178284 h 0.977202 c -0.0707,-0.01688 -0.119889,-0.07803 -0.119889,-0.155546 v -5.23689 c 0,-0.343116 -0.183391,-0.457336 -0.366386,-0.457336 z m 1.133264,0 c -0.182995,0 -0.365869,0.11422 -0.365869,0.457336 v 5.214152 c 0,0.07931 -0.05172,0.158575 -0.125057,0.178284 h 0.977201 c -0.0707,-0.01688 -0.119889,-0.07803 -0.119889,-0.155546 v -5.23689 c 0,-0.343116 -0.183391,-0.457336 -0.366386,-0.457336 z m 1.133781,0 c -0.182995,0 -0.365869,0.11422 -0.365869,0.457336 v 5.214152 c 0,0.07931 -0.05172,0.158575 -0.125057,0.178284 h 0.977201 c -0.0707,-0.01688 -0.119889,-0.07803 -0.119889,-0.155546 v -5.23689 c 0,-0.343116 -0.183391,-0.457336 -0.366386,-0.457336 z m 1.133264,0 c -0.182995,0 -0.365869,0.11422 -0.365869,0.457336 v 5.214152 c 0,0.07931 -0.05172,0.158575 -0.125057,0.178284 h 0.977201 c -0.0707,-0.01688 -0.119889,-0.07803 -0.119889,-0.155546 v -5.23689 c 0,-0.343116 -0.183391,-0.457336 -0.366386,-0.457336 z m 1.133781,0 c -0.182995,0 -0.365869,0.11422 -0.365869,0.457336 v 5.214152 c 0,0.07931 -0.05172,0.158575 -0.125057,0.178284 h 0.977201 c -0.0707,-0.01688 -0.119889,-0.07803 -0.119889,-0.155546 v -5.23689 c 0,-0.343116 -0.183391,-0.457336 -0.366386,-0.457336 z m 1.133264,0 c -0.182995,0 -0.365869,0.11422 -0.365869,0.457336 v 5.214152 c 0,0.07931 -0.05172,0.158575 -0.125057,0.178284 h 0.977201 c -0.0707,-0.01688 -0.119889,-0.07803 -0.119889,-0.155546 v -5.23689 c 0,-0.343116 -0.183391,-0.457336 -0.366386,-0.457336 z m 1.133781,0 c -0.182995,0 -0.365869,0.11422 -0.365869,0.457336 v 5.214152 c 0,0.07931 -0.05172,0.158575 -0.125057,0.178284 h 0.977201 c -0.0707,-0.01688 -0.119889,-0.07803 -0.119889,-0.155546 v -5.23689 c 0,-0.343116 -0.183391,-0.457336 -0.366386,-0.457336 z m 1.133781,0 c -0.182995,0 -0.365869,0.11422 -0.365869,0.457336 v 5.214152 c 0,0.07931 -0.05172,0.158575 -0.125057,0.178284 h 0.977201 c -0.0707,-0.01688 -0.119889,-0.07803 -0.119889,-0.155546 v -5.23689 c 0,-0.343116 -0.183391,-0.457336 -0.366386,-0.457336 z m 1.133264,0 c -0.182995,0 -0.365869,0.11422 -0.365869,0.457336 v 5.214152 c 0,0.07931 -0.05172,0.158575 -0.125057,0.178284 h 0.977201 c -0.0707,-0.01688 -0.119889,-0.07803 -0.119889,-0.155546 v -5.23689 c 0,-0.343116 -0.183391,-0.457336 -0.366386,-0.457336 z m 1.133781,0 c -0.182995,0 -0.365869,0.11422 -0.365869,0.457336 v 5.214152 c 0,0.07931 -0.05172,0.158575 -0.125057,0.178284 h 0.977201 c -0.0707,-0.01688 -0.119889,-0.07803 -0.119889,-0.155546 v -5.23689 c 0,-0.343116 -0.183391,-0.457336 -0.366386,-0.457336 z m 1.133264,0 c -0.182995,0 -0.365869,0.11422 -0.365869,0.457336 v 5.214152 c 0,0.07931 -0.05172,0.158575 -0.125057,0.178284 h 0.977201 c -0.0707,-0.01688 -0.119889,-0.07803 -0.119889,-0.155546 v -5.23689 c 0,-0.343116 -0.183391,-0.457336 -0.366386,-0.457336 z m 1.133781,0 c -0.182995,0 -0.365869,0.11422 -0.365869,0.457336 v 5.214152 c 0,0.07931 -0.05172,0.158575 -0.125057,0.178284 h 0.977201 c -0.0707,-0.01688 -0.119889,-0.07803 -0.119889,-0.155546 v -5.23689 c 0,-0.343116 -0.183391,-0.457336 -0.366386,-0.457336 z m 1.133264,0 c -0.182995,0 -0.365869,0.11422 -0.365869,0.457336 v 5.214152 c 0,0.07931 -0.05172,0.158575 -0.125057,0.178284 h 0.977201 c -0.0707,-0.01688 -0.119889,-0.07803 -0.119889,-0.155546 v -5.23689 c 0,-0.343116 -0.183391,-0.457336 -0.366386,-0.457336 z m 5.667871,0 c -0.182995,0 -0.365869,0.11422 -0.365869,0.457336 v 5.214152 c 0,0.07931 -0.01344,0.178284 -0.01344,0.178284 h 0.86558 c 0.07269,0 -0.119889,-0.07803 -0.119889,-0.155546 v -5.23689 c 0,-0.343116 -0.183391,-0.457336 -0.366386,-0.457336 z m 1.133781,0 c -0.182995,0 -0.365869,0.11422 -0.365869,0.457336 v 5.214152 c 0,0.07931 -0.05172,0.158575 -0.125057,0.178284 h 0.977201 c -0.0707,-0.01688 -0.119889,-0.07803 -0.119889,-0.155546 v -5.23689 c 0,-0.343116 -0.183391,-0.457336 -0.366386,-0.457336 z m 1.133264,0 c -0.182995,0 -0.365869,0.11422 -0.365869,0.457336 v 5.214152 c 0,0.07931 -0.05172,0.158575 -0.125057,0.178284 h 0.977202 c -0.0707,-0.01688 -0.11989,-0.07803 -0.11989,-0.155546 v -5.23689 c 0,-0.343116 -0.183391,-0.457336 -0.366386,-0.457336 z m 1.133781,0 c -0.182995,0 -0.365869,0.11422 -0.365869,0.457336 v 5.214152 c 0,0.07931 -0.05172,0.158575 -0.125057,0.178284 h 0.977201 c -0.0707,-0.01688 -0.119889,-0.07803 -0.119889,-0.155546 v -5.23689 c 0,-0.343116 -0.183391,-0.457336 -0.366386,-0.457336 z m 1.133264,0 c -0.182995,0 -0.365869,0.11422 -0.365869,0.457336 v 5.214152 c 0,0.07931 -0.05172,0.158575 -0.125057,0.178284 h 0.977202 c -0.0707,-0.01688 -0.11989,-0.07803 -0.11989,-0.155546 v -5.23689 c 0,-0.343116 -0.183391,-0.457336 -0.366386,-0.457336 z m 1.133781,0 c -0.182995,0 -0.365869,0.11422 -0.365869,0.457336 v 5.214152 c 0,0.07931 -0.05172,0.158575 -0.125057,0.178284 h 0.977202 c -0.0707,-0.01688 -0.11989,-0.07803 -0.11989,-0.155546 v -5.23689 c 0,-0.343116 -0.183391,-0.457336 -0.366386,-0.457336 z m 1.133264,0 c -0.182995,0 -0.365869,0.11422 -0.365869,0.457336 v 5.214152 c 0,0.07931 -0.05172,0.158575 -0.125057,0.178284 h 0.977202 c -0.0707,-0.01688 -0.11989,-0.07803 -0.11989,-0.155546 v -5.23689 c 0,-0.343116 -0.183391,-0.457336 -0.366386,-0.457336 z m 1.133781,0 c -0.182995,0 -0.365869,0.11422 -0.365869,0.457336 v 5.214152 c 0,0.07931 -0.05172,0.158575 -0.125057,0.178284 h 0.977202 c -0.0707,-0.01688 -0.11989,-0.07803 -0.11989,-0.155546 v -5.23689 c 0,-0.343116 -0.183391,-0.457336 -0.366386,-0.457336 z m 1.133781,0 c -0.182995,0 -0.365869,0.11422 -0.365869,0.457336 v 5.214152 c 0,0.07931 -0.05172,0.158575 -0.125057,0.178284 h 0.977202 c -0.0707,-0.01688 -0.11989,-0.07803 -0.11989,-0.155546 v -5.23689 c 0,-0.343116 -0.183391,-0.457336 -0.366386,-0.457336 z m 1.196449,0 c -0.182995,0 -0.429054,0.11422 -0.429054,0.457336 v 5.214152 c 0,0.07931 -0.05172,0.158575 -0.125057,0.178284 h 0.977202 c 0.0032,-1.797456 0.0014,-3.594965 0.0014,-5.392436 0,-0.343116 -0.241477,-0.457336 -0.424472,-0.457336 z"
       sodipodi:nodetypes="sssccsssssssccssssssccssssssccssssssccssssssccssssssccssssssccssssssccssssssccssssssccssssssccssssssccssssssccssssssccssssssccssssssccssssssccssssssccssssssccssssssccssssssccssssssccssssssccssssssccssssssccsssssscccsss" /><path
       d="m 37.510787,68.308665 c -0.115036,0.0051 -0.230551,0.019 -0.3452,0.04232 -1.203599,0.246819 -1.93125,1.245194 -1.753899,2.406057 0.258549,1.691992 2.296724,2.511583 3.623034,1.456759 0.801746,-0.637662 1.015321,-1.923714 0.472839,-2.847888 -0.403216,-0.687144 -1.191582,-1.092647 -1.996777,-1.057299 z m 0.166388,0.517282 c 0.197689,-9.55e-4 0.378817,0.04048 0.569993,0.12402 0.660589,0.288641 1.077312,1.090481 0.955495,1.837099 -0.103566,0.63228 -0.696776,1.232707 -1.336867,1.353405 -0.787786,0.148556 -1.686942,-0.386842 -1.878955,-1.118796 -0.181655,-0.692343 -0.145603,-0.897658 0.254247,-1.441773 0.320344,-0.435938 0.40303,-0.50334 0.766362,-0.624249 0.257349,-0.08566 0.472037,-0.128745 0.669726,-0.1297 z"
       style="fill:#000000;stroke-width:0.312295"
       id="path1" /><path
       id="path10-8"
       style="fill:#000000;fill-rule:evenodd;stroke-width:0.5402;stroke-linecap:round;stroke-linejoin:round;stroke-opacity:0.952448;paint-order:stroke fill markers"
       d="m 58.715392,49.36137 -2.739987,3.406366 c 0.0236,0.144951 0.03602,0.354836 0.03602,0.629531 0,0.272682 -0.03439,1.067553 -0.103145,2.385514 -0.06875,1.317977 -0.103145,3.067671 -0.103145,5.249129 0,1.681559 0.01268,3.567855 0.04093,5.65843 l 0.02047,1.840308 c 0.570854,-0.293625 1.657023,-1.032068 3.258186,-2.216056 V 49.36137 Z m -3.642947,4.529538 -3.645403,4.53117 c 0.03469,-0.04245 0.06956,-0.08396 0.103145,-0.125308 v 12.806798 c 0.19284,-0.04024 0.442125,-0.148435 0.749056,-0.323359 0.398591,-0.272682 0.653014,-0.454307 0.762972,-0.545206 0.920907,-0.590814 1.546451,-0.976606 1.876323,-1.158389 0,-0.954395 -0.01268,-2.204159 -0.04093,-3.749369 -0.02757,-2.090574 -0.04174,-3.681931 -0.04174,-4.772659 0,-1.772443 0.01426,-3.135537 0.04174,-4.089933 0.03977,-0.963457 0.10408,-1.821314 0.194837,-2.573792 z m -7.292443,9.066443 -4.554093,5.661709 v 10.921468 c 0,2.712914 0.1763,7.290801 2.502583,7.290801 1.030641,0 2.179468,-1.073636 3.475125,-3.221351 l 0.82437,-1.80918 V 64.817287 c 0,-0.791259 -0.205805,-1.243395 -0.588603,-1.412964 z m -5.252393,6.529467 -8.933814,11.107291 c 0.401332,-0.359733 0.827751,-0.700534 1.278715,-1.023292 1.418683,-1.015339 2.837425,-1.523491 4.256108,-1.523491 0.600208,0 1.118899,0.113268 1.555416,0.338916 0.245544,0.126892 0.476759,0.296033 0.695025,0.507567 0.218249,0.211518 0.327456,0.401364 0.327456,0.570584 0,0.239732 -0.06828,0.522109 -0.204662,0.846467 -0.109149,0.310227 -0.231974,0.465 -0.368386,0.465 -0.272825,0 -0.449461,-0.07731 -0.531299,-0.232493 -0.0819,-0.155089 -0.13638,-0.352144 -0.163726,-0.591891 -0.0819,-0.366639 -0.16374,-0.606751 -0.245593,-0.719575 -0.0819,-0.126892 -0.204696,-0.189925 -0.368388,-0.189925 -1.282271,0 -2.523576,0.465063 -3.723992,1.395775 -1.200417,0.916614 -2.183202,1.988776 -2.947103,3.215617 -0.763899,1.212741 -1.145276,2.150075 -1.145276,2.812858 0,0.930712 0.599772,1.395776 1.800188,1.395776 0.873033,0 1.664714,-0.112476 2.374055,-0.338108 0.736621,-0.225633 1.500177,-0.543115 2.291372,-0.952068 1.473242,-0.77559 2.619011,-1.444868 3.437469,-2.008942 0.0095,-0.0079 0.02213,-0.01727 0.03765,-0.02867 -0.145743,-0.905382 -0.225125,-1.963445 -0.225125,-3.185328 v -6.472167 c 0,-0.508676 -0.08776,-0.904463 -0.264421,-1.130539 -0.176682,-0.282615 -0.82452,-0.434695 -2.002393,-0.434695 z m 16.597102,0.209569 c -1.109802,0.638339 -1.735284,0.999101 -1.876322,1.083885 l -1.340113,0.749865 c 0,2.363257 0.0063,4.840304 0.02047,7.430793 0.02756,2.590489 0.06196,4.863401 0.103145,6.817626 0.02471,1.186857 0.05771,2.248944 0.09906,3.186975 h 2.993765 z m -4.20617,2.37978 c -0.769714,0.40903 -1.559832,0.908962 -2.370782,1.49976 -0.45399,0.311573 -0.793125,0.526054 -1.017569,0.64344 V 84.90999 c 0,1.412981 0.70616,1.864863 1.295089,1.864863 h 2.23816 c -0.0079,-0.327479 -0.01426,-0.659361 -0.02129,-0.996297 -0.04119,-1.863326 -0.07574,-4.022098 -0.103145,-6.476254 -0.01426,-2.499591 -0.02047,-4.908329 -0.02047,-7.226135 z m -24.136774,12.014367 -3.921283,4.874997 h 6.567127 c -0.284893,-0.01695 -0.563743,-0.05639 -0.821096,-0.11707 -0.06731,-0.01584 -0.131724,-0.03327 -0.194018,-0.05164 -0.557325,-0.109941 -1.046857,-0.308199 -1.468639,-0.595962 -1.611064,0.170598 -1.994472,-0.342323 -1.841609,-0.778443 0.125577,-0.358291 0.676155,-0.625333 0.665216,-0.756612 0,-0.69282 0.467608,-1.599959 1.014302,-2.57533 z m 19.24622,0.08428 c -1.531222,3.108543 -3.003432,4.748106 -4.799684,4.748106 -1.389677,0 -2.560666,-1.093739 -3.131298,-3.616743 -0.396041,0.295621 -0.799117,0.569618 -1.209131,0.821912 -1.418683,0.888399 -2.700929,1.572046 -3.846787,2.051509 -0.22338,0.09569 -0.449288,0.182036 -0.677015,0.258694 -0.253078,0.08522 -0.509436,0.155407 -0.767884,0.216936 -0.240243,0.06463 -0.496991,0.149387 -0.682746,0.193204 -0.257355,0.06067 -0.536204,0.100119 -0.821095,0.11707 h 21.027579 c -3.1e-5,-0.0012 4.8e-5,-0.0016 0,-0.0032 h -5.091939 z" /><path
       d="m 11.450829,43.323241 c -0.182995,0 -0.57868,0.11422 -0.57868,0.457336 v 5.214152 c 0,0.08232 -0.0048,0.178284 -0.0048,0.178284 l 1.069727,0 c -0.0707,-0.01688 -0.119889,-0.07803 -0.119889,-0.155546 v -5.23689 c 0,-0.343116 -0.183391,-0.457336 -0.366386,-0.457336 z m 1.136882,0 c -0.182995,0 -0.36587,0.11422 -0.36587,0.457336 v 5.214152 c 0,0.07931 -0.05172,0.158575 -0.125057,0.178284 h 0.977202 c -0.0707,-0.01688 -0.119889,-0.07803 -0.119889,-0.155546 v -5.23689 c 0,-0.343116 -0.183391,-0.457336 -0.366386,-0.457336 z m 1.133264,0 c -0.182995,0 -0.365869,0.11422 -0.365869,0.457336 v 5.214152 c 0,0.07931 -0.05172,0.158575 -0.125057,0.178284 h 0.977201 c -0.0707,-0.01688 -0.119889,-0.07803 -0.119889,-0.155546 v -5.23689 c 0,-0.343116 -0.183391,-0.457336 -0.366386,-0.457336 z m 1.133781,0 c -0.182995,0 -0.365869,0.11422 -0.365869,0.457336 v 5.214152 c 0,0.07931 -0.05172,0.158575 -0.125057,0.178284 h 0.977201 c -0.0707,-0.01688 -0.119889,-0.07803 -0.119889,-0.155546 v -5.23689 c 0,-0.343116 -0.183391,-0.457336 -0.366386,-0.457336 z m 1.133264,0 c -0.182995,0 -0.365869,0.11422 -0.365869,0.457336 v 5.214152 c 0,0.07931 -0.05172,0.158575 -0.125057,0.178284 h 0.977201 c -0.0707,-0.01688 -0.119889,-0.07803 -0.119889,-0.155546 v -5.23689 c 0,-0.343116 -0.183391,-0.457336 -0.366386,-0.457336 z"
       style="fill:#000000;fill-rule:evenodd;stroke-width:0.341;stroke-linecap:round;stroke-linejoin:round;stroke-opacity:0.952448;paint-order:stroke fill markers"
       id="path1-2"
       sodipodi:nodetypes="sssccssssssccssssssccssssssccssssssccsss" /></g></svg>
