<?xml version="1.0" encoding="UTF-8" standalone="no"?>
<!-- Created with Inkscape (http://www.inkscape.org/) -->

<svg
   width="51.063881mm"
   height="27.281075mm"
   viewBox="0 0 51.063881 27.281074"
   version="1.1"
   id="svg1"
   xmlns="http://www.w3.org/2000/svg"
   xmlns:svg="http://www.w3.org/2000/svg">
  <defs
     id="defs1" />
  <g
     id="layer1"
     transform="translate(-51.690902,-79.010115)">
    <path
       id="rect10-3"
       style="fill:#1a1a1a;fill-rule:evenodd;stroke-width:0.341;stroke-linecap:round;stroke-linejoin:round;stroke-opacity:0.952448;paint-order:stroke fill markers"
       d="m 51.690902,79.185348 v 25.000022 h 10e-4 v -0.0956 h 27.321847 l 0.141593,-0.17622 h -27.46344 v -0.26303 h 27.674797 l 0.135392,-0.16795 H 51.691935 v -0.27027 h 28.027747 l 0.127641,-0.15916 H 51.691935 v -0.27698 h 28.378113 l 0.12144,-0.1509 H 51.691935 v -0.2837 h 28.727963 l 0.114205,-0.14211 H 51.691935 v -0.29094 h 29.076262 l 0.10697,-0.13281 H 51.691935 v -0.29766 h 29.422494 l 0.09922,-0.1235 H 51.691935 v -0.30489 h 29.767176 l 0.09095,-0.11318 H 51.691935 v -0.31212 h 30.109274 l 0.08268,-0.10284 H 51.691935 v -0.31884 h 30.448271 l 0.0739,-0.092 H 51.691935 v -0.325566 h 30.784168 l 0.06408,-0.07958 H 51.691935 v -0.332796 h 31.115931 l 0.05116,-0.06408 h -31.16709 v -0.339514 h 16.709058 l 0.02635,-0.03617 H 51.691935 v -0.346232 h 0.214974 c -0.0388,-0.04106 -0.06511,-0.09694 -0.06511,-0.146244 V 81.421904 c 0,-0.20587 0.09154,-0.274402 0.251664,-0.274402 h 3.225643 c 0.160121,0 0.22841,0.06843 0.22841,0.205672 v 4.16357 c 0,0.160121 0.04586,0.205672 0.06873,0.205672 0.02287,0 0.114554,-0.04596 0.228926,-0.137459 0.388865,-0.36599 0.937579,-0.663009 1.600936,-0.663009 0.960725,0 2.196249,0.571726 2.196249,2.355929 v 11.231356 c 0,0.02732 -0.01096,0.05458 -0.02842,0.07751 h 2.357995 c -0.511733,-0.114512 -0.938291,-0.333754 -1.174088,-0.601513 -0.469372,-0.509559 -0.323327,-1.145541 -0.402043,-1.79679 -0.203302,-0.655622 0.167421,-1.428754 0.993221,-2.027266 0.972428,-0.757253 2.466016,-1.097794 3.866431,-1.629875 0.816291,-0.214306 1.648193,-0.781138 1.840714,-1.458826 0.195812,-0.322649 0.113687,-0.754852 -0.349849,-0.776696 -0.476625,0.04029 -0.716811,0.488538 -0.77618,0.778763 -0.134452,0.32615 -0.09729,0.730543 -0.540536,0.95033 -1.236991,-0.02111 -2.469287,-0.04209 -3.696932,-0.06305 -0.375775,0.005 -0.917148,0.05641 -1.081071,-0.266134 -0.0202,-0.919832 -0.04469,-1.974891 0.486792,-3.042708 1.088274,-2.181169 3.996523,-3.872134 6.849195,-4.103626 0.531587,-0.04288 1.058446,-0.05965 1.569413,-0.03979 0.510967,0.01986 1.006233,0.07591 1.474845,0.177767 2.662319,0.442974 3.832776,2.589078 2.785877,4.830196 l -3.701066,6.039425 c -0.09922,0.228323 -0.391242,0.47129 -0.330213,0.670243 0.06211,0.101591 0.340049,0.08277 0.516248,0.114722 l 6.680729,-9.230444 c 0.137197,-0.189556 0.3568,-0.326071 0.537948,-0.326071 h 4.287076 c 0.181146,0 0.190104,0.136273 0.07906,0.271819 l -9.444384,11.529528 h 0.784965 L 86.543038,82.332959 c 0.13117,-0.160121 0.33921,-0.274402 0.476457,-0.274402 h 5.10098 c 2.012948,0 3.140839,1.555311 0.854729,4.345988 -1.011885,1.235218 -3.096037,3.49968 -5.531446,3.819922 l -0.03721,0.04599 c 1.743874,0.653988 1.250089,1.765995 -0.03101,3.423047 L 99.045117,79.185348 Z m 30.084985,2.22622 h 4.103109 c 0.133428,0 0.219005,0.09991 0.08423,0.265617 l -3.199805,3.934127 c -0.139072,0.170996 -0.377014,0.312642 -0.561206,0.312642 H 78.45671 c -0.153494,0 -0.182782,-0.169883 -0.05788,-0.341064 l 2.777609,-3.807003 c 0.120487,-0.165127 0.432662,-0.364319 0.599446,-0.364319 z m 5.700428,5.450314 c -0.114372,0 -0.238969,0.06894 -0.3514,0.206189 l -1.723926,2.104264 c -0.13117,0.160121 -0.123157,0.206189 -0.0088,0.206189 0.548986,0 1.073823,-0.640698 1.935799,-1.69292 0.430988,-0.526111 0.354181,-0.823722 0.148312,-0.823722 z m -31.654399,1.697054 c -0.182995,0 -0.365869,0.11422 -0.365869,0.457336 v 9.446969 c 0,0.04475 -0.01643,0.08948 -0.04393,0.123506 h 0.809253 c -0.02103,-0.02697 -0.03307,-0.06152 -0.03307,-0.100252 v -9.470223 c 0,-0.343116 -0.183391,-0.457336 -0.366386,-0.457336 z m 27.959017,2.786393 c -0.137247,0 -0.253819,0.114281 -0.38499,0.274402 l -5.707145,6.967016 h 1.646411 c -0.12801,-0.550257 0.257925,-1.43149 1.231967,-2.620512 l 2.886128,-3.522782 c 0.599636,-0.731981 0.579247,-1.098124 0.327629,-1.098124 z M 65.70555,94.797831 c -0.34741,0.02565 -0.679009,0.198442 -0.835091,0.395842 -0.231697,0.505127 -0.322912,0.982193 -0.425814,1.429887 -0.07985,0.227138 0.554431,0.280979 0.761194,0.07906 0.15742,-0.314232 0.2422,-0.643624 0.356051,-0.986503 0.02199,-0.283787 0.347325,-0.609491 0.180867,-0.890902 z m 20.743954,0.04703 c -0.01257,0.01534 -0.0251,0.03058 -0.03772,0.04599 -0.0143,0.01746 -0.02805,0.03475 -0.04134,0.05219 z m -17.351396,3.161564 c -0.414921,0.251629 -0.931837,0.458342 -1.477429,0.580326 h 1.0573 z m -4.37596,0.197404 c -0.05033,2.6e-5 -0.105539,0.0072 -0.165881,0.02325 -0.26368,0.160096 -0.600694,0.284173 -0.962216,0.359668 h 1.922364 c -0.140742,-0.04322 -0.26331,-0.09878 -0.360702,-0.167948 -0.08632,-0.08459 -0.215483,-0.215088 -0.433565,-0.214974 z m 18.881018,0.179834 c -0.127695,0.07367 -0.252851,0.141198 -0.375688,0.203088 h 0.21239 z m -11.443746,0.54932 -0.02946,0.03617 h 0.788583 c 0.0081,-0.01171 0.01666,-0.02377 0.02635,-0.03617 z m 5.245675,0 -0.0057,0.0067 c -0.0081,0.0098 -0.01667,0.01967 -0.02584,0.02946 h 2.186947 c -0.01315,-0.01171 -0.02612,-0.02377 -0.03824,-0.03617 z m 5.012097,0 c -0.0356,0.01252 -0.07103,0.02458 -0.105937,0.03617 h 0.821139 l 0.02894,-0.03617 z" />
    <path
       id="path10-8"
       style="fill:#1a1a1a;fill-rule:evenodd;stroke-width:0.341;stroke-linecap:round;stroke-linejoin:round;stroke-opacity:0.952448;paint-order:stroke fill markers"
       d="m 98.989307,81.291162 -1.72961,2.150257 c 0.0149,0.0915 0.02274,0.223991 0.02274,0.397391 0,0.17213 -0.02171,0.673892 -0.06511,1.505852 -0.0434,0.83197 -0.06511,1.936452 -0.06511,3.313492 0,1.06148 0.008,2.252205 0.02584,3.571875 l 0.01292,1.161687 c 0.36035,-0.18535 1.045992,-0.651491 2.056722,-1.398881 V 81.291162 Z m -2.299601,2.859257 -2.301152,2.860291 c 0.0219,-0.0268 0.04391,-0.05297 0.06511,-0.07906 v 8.084261 c 0.12173,-0.0254 0.27909,-0.0937 0.47284,-0.204122 0.25161,-0.17213 0.412214,-0.286785 0.481624,-0.344165 0.58132,-0.37295 0.976194,-0.616472 1.184424,-0.731222 0,-0.60246 -0.008,-1.39137 -0.02584,-2.36678 -0.0174,-1.31967 -0.02635,-2.324216 -0.02635,-3.012736 0,-1.11885 0.009,-1.979295 0.02635,-2.581755 0.0251,-0.60818 0.0657,-1.149707 0.12299,-1.624707 z m -4.603337,5.723165 -2.87476,3.573942 v 6.894154 c 0,1.71252 0.111289,4.6023 1.579749,4.6023 0.65059,0 1.375784,-0.67773 2.193664,-2.03347 l 0.520382,-1.14204 V 91.047673 c 0,-0.49948 -0.129914,-0.784896 -0.371554,-0.891936 z m -3.31556,4.121712 -5.639449,7.011454 c 0.25334,-0.22708 0.522516,-0.44221 0.807186,-0.64595 0.89554,-0.640933 1.791118,-0.961699 2.686658,-0.961699 0.37888,0 0.706302,0.0715 0.981852,0.21394 0.155,0.0801 0.300953,0.186864 0.438733,0.320394 0.13777,0.133525 0.206706,0.253365 0.206706,0.360185 0,0.15133 -0.0431,0.32958 -0.129192,0.53433 -0.0689,0.19583 -0.146433,0.29353 -0.232543,0.29353 -0.17222,0 -0.283721,-0.0488 -0.335381,-0.14676 -0.0517,-0.0979 -0.08609,-0.22229 -0.103352,-0.37363 -0.0517,-0.23144 -0.10336,-0.38301 -0.15503,-0.45423 -0.0517,-0.0801 -0.129214,-0.11989 -0.232544,-0.11989 -0.80943,0 -1.593001,0.29357 -2.350761,0.88108 -0.75776,0.57861 -1.378141,1.25541 -1.860351,2.02985 -0.48221,0.76554 -0.722953,1.35723 -0.722953,1.77561 0,0.58751 0.378604,0.88108 1.136364,0.88108 0.5511,0 1.050847,-0.071 1.498617,-0.21343 0.46499,-0.14243 0.946983,-0.34284 1.446423,-0.60099 0.92998,-0.48959 1.653244,-0.91207 2.169894,-1.26814 0.006,-0.005 0.01397,-0.0109 0.02377,-0.0181 -0.092,-0.57152 -0.14211,-1.23942 -0.14211,-2.01073 v -4.085537 c 0,-0.3211 -0.0554,-0.570942 -0.166915,-0.713652 -0.11153,-0.1784 -0.520476,-0.274402 -1.264006,-0.274402 z m 10.47688,0.132292 c -0.70056,0.40295 -1.095394,0.630676 -1.184424,0.684196 l -0.845943,0.473356 c 0,1.4918 0.004,3.05543 0.01292,4.69067 0.0174,1.63524 0.03911,3.07001 0.06511,4.30361 0.0156,0.7492 0.03643,1.41964 0.06253,2.01177 h 1.889807 z m -2.655135,1.502234 c -0.48588,0.2582 -0.98464,0.573772 -1.49655,0.946712 -0.28658,0.19668 -0.500658,0.332077 -0.642338,0.406177 v 6.748429 c 0,0.89194 0.445762,1.17719 0.817522,1.17719 h 1.412833 c -0.005,-0.20672 -0.009,-0.41622 -0.01344,-0.62891 -0.026,-1.17622 -0.04781,-2.53894 -0.06511,-4.08812 -0.009,-1.577861 -0.01292,-3.098368 -0.01292,-4.561478 z m -15.236279,7.584038 -2.475301,3.07733 h 4.145483 c -0.179838,-0.0107 -0.355861,-0.0356 -0.518315,-0.0739 -0.04249,-0.01 -0.08315,-0.021 -0.122473,-0.0326 -0.35181,-0.0694 -0.660826,-0.19455 -0.927075,-0.3762 -1.01698,0.10769 -1.259005,-0.21609 -1.162511,-0.49139 0.07927,-0.22617 0.426821,-0.39474 0.419916,-0.47761 0,-0.43734 0.295176,-1.00997 0.640276,-1.62567 z m 12.149129,0.0532 c -0.96658,1.96226 -1.895909,2.99723 -3.029789,2.99723 -0.87723,0 -1.616414,-0.69042 -1.976624,-2.28306 -0.25,0.18661 -0.504441,0.35957 -0.763261,0.51883 -0.89554,0.5608 -1.704955,0.99235 -2.428275,1.29501 -0.141008,0.0604 -0.283612,0.11491 -0.427364,0.1633 -0.159755,0.0538 -0.32158,0.0981 -0.484725,0.13694 -0.151653,0.0408 -0.313724,0.0943 -0.430982,0.12196 -0.162454,0.0383 -0.338477,0.0632 -0.518314,0.0739 h 13.273608 c -2e-5,-7.6e-4 3e-5,-10e-4 0,-0.002 h -3.214274 z" />
    <path
       style="fill:#ffffff;fill-rule:evenodd;stroke:none;stroke-width:0.0196434;stroke-linecap:round;stroke-linejoin:round;stroke-opacity:0.952448;paint-order:stroke fill markers"
       d="m 99.527596,105.99245 c -5.76e-4,0.10632 0.134935,0.0896 0.206847,0.10879 0.228694,0.024 0.478117,0.0432 0.690347,-0.0619 0.19266,-0.15074 0.28258,-0.392 0.38296,-0.60742 0.0413,-0.11773 0.11277,-0.23442 0.11433,-0.36092 -0.10493,-0.20788 -0.27604,-0.37513 -0.41784,-0.5582 -0.40371,-0.48144 -0.847488,-0.96496 -1.033324,-1.57797 -0.03611,-0.0661 -0.03448,-0.16906 -0.105572,-0.20744 -0.09085,0.0104 -0.04972,0.13365 -0.05887,0.19516 0.0432,1.02535 0.17492,2.04726 0.221103,3.0699 z"
       id="path3" />
    <g
       id="g7"
       transform="matrix(-0.16158677,-1.5881794,1.5881794,-0.16158677,-46.145235,134.01096)">
      <path
         id="path4"
         style="fill:#000000;stroke-width:0.0982267"
         d="m 25.041479,94.252432 c 0.0117,-0.134913 0.01136,-0.250946 -0.0017,-0.344751 -0.02737,-0.197141 -0.0907,-0.244396 -0.390567,-0.289956 -0.690317,-0.105004 -5.354307,-0.646631 -6.461536,-0.750478 -2.005473,-0.188093 -7.860436,-0.538354 -9.0578316,-0.541854 -0.307139,-8.9e-4 -0.638406,-0.01153 -0.736226,-0.0235 -0.06436,-0.0079 -0.175853,-0.03922 -0.320888,-0.08894 l -0.07343,0.72171 1.2e-4,0.0052 -6.12e-4,-3.88e-4 -0.01995,0.196128 c 6.79e-4,4e-4 0.0015,7.95e-4 0.0022,0.0012 l -0.06144,0.60384 c -7.36e-4,1.65e-4 -0.0016,2.49e-4 -0.0023,4.14e-4 l -0.01877,0.184534 c 7.35e-4,-1.6e-4 0.0016,-2.54e-4 0.0023,-4.15e-4 l -0.04594,0.451511 c -6.98e-4,-1.9e-5 -0.0016,1.12e-4 -0.0023,9.3e-5 l -0.01786,0.175516 c 6.97e-4,1.7e-5 0.0016,-1.1e-4 0.0023,-9.3e-5 l -3.3e-5,3.22e-4 9.99e-4,-2.23e-4 c 0.47173,0.01184 1.329456,0.07003 3.2022316,0.20639 2.023018,0.147301 4.21248,0.264377 6.623885,0.354087 0.809921,0.03013 1.204199,0.04005 2.774228,0.07011 1.508808,0.02888 3.160553,0.01453 3.901193,-0.03388 0.551084,-0.03601 0.544482,-0.03131 0.630632,-0.438552 0.03585,-0.169346 0.05964,-0.323124 0.07133,-0.458038 z m -0.207832,0.136664 c -0.01626,0.12631 -0.0478,0.307774 -0.0703,0.403154 l -0.04108,0.173479 -0.08311,0.0046 -0.08311,0.0046 0.03694,-0.388652 c 0.02033,-0.213842 0.03263,-0.411973 0.02753,-0.440043 -0.01195,-0.06549 -0.103584,-0.103886 -0.141044,-0.05925 -0.01576,0.01877 -0.04491,0.217079 -0.0647,0.440817 -0.01979,0.223744 -0.04965,0.422928 -0.06618,0.442618 -0.01656,0.01976 -0.05445,0.03083 -0.08418,0.02463 -0.06732,-0.01412 -0.06742,-0.01541 -0.01648,-0.528795 0.03973,-0.40043 0.02756,-0.470465 -0.07972,-0.450955 -0.05952,0.01083 -0.06385,0.02963 -0.114919,0.499482 -0.05215,0.479888 -0.05547,0.491755 -0.124515,0.497855 -0.03067,0.0027 -0.0644,-0.01105 -0.07529,-0.03076 -0.0109,-0.01969 0.0015,-0.248043 0.02755,-0.507396 0.02835,-0.281787 0.03433,-0.476261 0.01555,-0.498204 -1.52e-4,-1.53e-4 -7.45e-4,-6.11e-4 -9.01e-4,-7.42e-4 -0.03756,-0.03153 -0.111746,-0.03025 -0.139186,0.0024 -0.01027,0.01225 -0.03691,0.235121 -0.05916,0.495069 -0.04217,0.492683 -0.07795,0.598308 -0.181236,0.534058 -0.03848,-0.02392 -0.04105,-0.09409 -0.01251,-0.366351 0.06156,-0.587704 0.06265,-0.675333 0.009,-0.708743 -0.09164,-0.05702 -0.136974,0.03295 -0.157694,0.312266 -0.04872,0.656325 -0.06321,0.751815 -0.115287,0.768535 -0.12833,0.0411 -0.134735,-0.04642 -0.05902,-0.795055 0.01509,-0.149237 0.02323,-0.283543 0.01833,-0.298463 -0.0128,-0.03889 -0.08213,-0.05807 -0.124691,-0.03449 -0.0475,0.02634 -0.05425,0.06733 -0.10058,0.607992 -0.02154,0.251451 -0.05026,0.476461 -0.06358,0.500151 -0.02774,0.04904 -0.114261,0.04695 -0.142171,-0.0034 -0.0103,-0.01858 0.0067,-0.273004 0.0377,-0.565583 0.03092,-0.292587 0.04814,-0.547513 0.03844,-0.566483 -0.02307,-0.04444 -0.102408,-0.0445 -0.139568,-2.08e-4 -0.01594,0.019 -0.05169,0.27321 -0.07931,0.565252 -0.02758,0.292044 -0.06321,0.548608 -0.07913,0.569828 -0.01598,0.02121 -0.05935,0.03533 -0.09627,0.03153 -0.06496,-0.0068 -0.06531,-0.02545 -0.0086,-0.589821 0.03219,-0.320509 0.05,-0.5984 0.0394,-0.61747 -0.02326,-0.042 -0.110659,-0.0459 -0.143809,-0.0065 -0.01319,0.01572 -0.04736,0.283575 -0.07588,0.595536 -0.02854,0.311952 -0.0663,0.584255 -0.0837,0.605155 -0.01751,0.02081 -0.05736,0.0327 -0.08888,0.0261 -0.06529,-0.01369 -0.06489,-0.05781 0.009,-0.817743 0.03351,-0.345085 0.03283,-0.437296 -0.0039,-0.460166 -0.10279,-0.06387 -0.142547,0.06724 -0.197087,0.648282 -0.02873,0.30588 -0.06706,0.573369 -0.0849,0.594619 -0.03855,0.04595 -0.126369,0.05084 -0.140709,0.0078 -0.0055,-0.01673 0.01844,-0.310924 0.05318,-0.653812 0.03473,-0.34289 0.05213,-0.632909 0.03854,-0.644239 -0.03429,-0.02877 -0.107602,-0.01922 -0.138182,0.01815 -0.01405,0.01714 -0.05138,0.307323 -0.08283,0.644614 -0.03144,0.33729 -0.06878,0.627068 -0.08312,0.644258 -0.03139,0.03746 -0.104535,0.04683 -0.139115,0.01773 -0.01381,-0.01159 0.0053,-0.317092 0.04237,-0.678666 0.06029,-0.588553 0.06152,-0.660987 0.01231,-0.693437 -0.108685,-0.0715 -0.133405,0.01495 -0.193425,0.673058 -0.03197,0.350391 -0.07299,0.654574 -0.0909,0.676004 -0.02113,0.02521 -0.05436,0.02854 -0.09401,0.0093 -0.03274,-0.01577 -0.05976,-0.03422 -0.06148,-0.04172 l 3.3e-5,-3.22e-4 3.3e-5,-3.22e-4 c -3e-5,-0.0069 0.02874,-0.30544 0.06389,-0.663135 0.06508,-0.662478 0.05766,-0.741763 -0.06387,-0.693053 -0.03987,0.01604 -0.05415,0.04472 -0.06225,0.125771 -0.0057,0.05783 -0.03142,0.333209 -0.05736,0.611738 -0.05524,0.593467 -0.06651,0.64711 -0.138098,0.66014 -0.02791,0.005 -0.06156,2.99e-4 -0.07442,-0.0105 l -2.89e-4,-3.55e-4 c -0.01222,-0.01458 -0.01032,-0.152548 0.0045,-0.309953 0.03323,-0.351188 0.0905,-1.040674 0.08983,-1.081214 -3.2e-4,-0.01604 -0.02429,-0.03896 -0.05338,-0.05098 -0.106583,-0.04391 -0.136393,0.06072 -0.178303,0.626765 -0.02231,0.30121 -0.04762,0.608302 -0.05642,0.682442 l -0.01598,0.134709 -0.0783,-0.0011 c -0.05727,-9.9e-4 -0.08058,-0.01299 -0.08628,-0.04424 -0.0043,-0.02351 0.01825,-0.34096 0.04995,-0.705226 0.05783,-0.664427 0.05177,-0.733324 -0.06287,-0.712474 -0.05963,0.01085 -0.05241,-0.03636 -0.125502,0.808169 -0.04276,0.494627 -0.06447,0.633153 -0.10074,0.644743 -0.02551,0.0083 -0.06644,-0.0019 -0.09108,-0.02261 -0.03572,-0.02998 -0.0331,-0.175641 0.01261,-0.718786 0.05725,-0.680104 0.05001,-0.773954 -0.05929,-0.754084 -0.05807,0.01055 -0.05867,0.01391 -0.119667,0.712449 -0.06531,0.747578 -0.06428,0.740265 -0.127159,0.760495 -0.02796,0.009 -0.06637,0.008 -0.08532,-0.0025 -3.36e-4,-2.48e-4 -0.0012,-0.0011 -0.0015,-0.0015 -0.01945,-0.02605 -0.01042,-0.273554 0.02599,-0.690418 0.0687,-0.786824 0.06861,-0.798659 -0.0095,-0.815069 -0.03135,-0.0065 -0.06862,0.0018 -0.08259,0.0186 -0.01398,0.01668 -0.05334,0.355159 -0.08759,0.752155 -0.03997,0.463356 -0.07579,0.729342 -0.09998,0.742762 -0.05362,0.02972 -0.121148,1.42e-4 -0.125848,-0.0551 -0.0022,-0.02582 0.02345,-0.359879 0.05697,-0.742256 0.06184,-0.70529 0.05388,-0.803196 -0.06228,-0.756666 -0.04222,0.01692 -0.06152,0.139045 -0.111715,0.714235 -0.07257,0.831397 -0.07051,0.819421 -0.137653,0.831661 -0.10356,0.01883 -0.118688,-0.04616 -0.0853,-0.36725 0.06496,-0.624875 0.101318,-1.196079 0.07721,-1.216229 -0.03314,-0.02782 -0.106859,-0.01927 -0.136309,0.01574 -0.01319,0.01573 -0.03876,0.216614 -0.05678,0.446178 -0.08975,1.142718 -0.09565,1.172681 -0.218343,1.113041 -0.03162,-0.01544 -0.05771,-0.03286 -0.06094,-0.04069 l -2.9e-4,-3.55e-4 3.3e-5,-3.22e-4 3.3e-5,-3.22e-4 3.3e-5,-3.22e-4 -2.9e-4,-3.55e-4 c 4e-5,-0.0069 0.0289,-0.345024 0.06411,-0.751617 0.03521,-0.406593 0.05578,-0.754446 0.04546,-0.773036 -0.02406,-0.04377 -0.112028,-0.05448 -0.138508,-0.01702 -0.01129,0.01595 -0.04808,0.364529 -0.08206,0.77452 -0.03397,0.409983 -0.07348,0.759481 -0.08747,0.776571 -0.03276,0.04022 -0.104302,0.04614 -0.144742,0.01228 -0.01738,-0.01457 -0.02371,-0.09977 -0.01391,-0.189485 0.05037,-0.461749 0.131061,-1.375854 0.123461,-1.398944 -0.01337,-0.04052 -0.121976,-0.0548 -0.151226,-0.01994 -0.01426,0.01699 -0.04834,0.281484 -0.07578,0.588064 -0.0877,0.980482 -0.08853,0.98652 -0.132493,1.0144 -0.02286,0.0146 -0.06197,0.01953 -0.0867,0.01103 -0.05656,-0.01948 -0.05614,-0.03381 0.02282,-0.886296 0.03482,-0.375897 0.05906,-0.696101 0.05386,-0.711661 -0.01634,-0.04951 -0.108437,-0.07093 -0.140477,-0.03284 -0.02542,0.03029 -0.157843,1.3212 -0.154143,1.502222 0.0016,0.07879 -0.04432,0.121835 -0.114693,0.107095 -0.08291,-0.01738 -0.08296,-0.02054 -0.0061,-0.838481 0.07586,-0.807981 0.07594,-0.831762 0.003,-0.841782 -0.02911,-0.004 -0.06659,0.0039 -0.0831,0.01725 -0.02625,0.02114 -0.135351,1.05121 -0.154451,1.457288 -0.008,0.169622 -0.06009,0.234648 -0.14355,0.179648 -0.04568,-0.03009 -0.05338,-0.06241 -0.04065,-0.169755 0.06163,-0.518388 0.119596,-1.487253 0.09038,-1.511963 -0.01871,-0.01582 -0.06021,-0.01793 -0.09221,-0.0052 -0.04899,0.01967 -0.06005,0.04376 -0.06875,0.154395 -0.0057,0.07217 -0.03344,0.434876 -0.06182,0.805863 -0.02837,0.370995 -0.06334,0.688349 -0.07762,0.705339 -0.02924,0.03488 -0.137849,0.02081 -0.151259,-0.01962 -0.0048,-0.01448 0.02164,-0.372979 0.05858,-0.796431 0.03695,-0.423453 0.06264,-0.793438 0.05734,-0.822588 -0.01215,-0.06682 -0.09806,-0.0834 -0.141356,-0.0274 -0.01635,0.02115 -0.0498,0.288647 -0.07418,0.594735 -0.08907,1.118244 -0.09491,1.146269 -0.219868,1.064079 -0.04994,-0.03284 -0.04798,-0.117191 0.01763,-0.84485 0.04008,-0.444661 0.06459,-0.82378 0.05444,-0.84208 -0.02281,-0.04111 -0.110401,-0.04379 -0.143361,-0.0045 -0.01342,0.016 -0.03741,0.196169 -0.05313,0.400671 -0.05743,0.74667 -0.108737,1.2476 -0.130557,1.2736 -0.03528,0.04205 -0.139569,0.01071 -0.149669,-0.04484 -0.0046,-0.02542 0.02241,-0.376002 0.06006,-0.779035 0.08084,-0.864939 0.0808,-0.879618 0.0043,-0.895668 -0.08407,-0.01763 -0.107301,0.0294 -0.127391,0.260685 -0.109869,1.263794 -0.130326,1.434019 -0.175696,1.448619 -0.1308,0.04233 -0.135168,-0.01672 -0.06133,-0.839543 0.03956,-0.440965 0.06788,-0.825768 0.06258,-0.854918 -0.01118,-0.06145 -0.09025,-0.08357 -0.143943,-0.04035 -0.01805,0.01453 -0.06253,0.399768 -0.09878,0.85579 -0.03627,0.456026 -0.07685,0.84176 -0.09019,0.85764 -0.03437,0.04097 -0.141088,0.0148 -0.150488,-0.03679 -0.0041,-0.02237 0.02439,-0.404105 0.06321,-0.848346 0.04272,-0.489144 0.05787,-0.818253 0.03839,-0.834603 -0.03736,-0.03136 -0.111557,-0.02934 -0.139317,0.0037 -0.01059,0.0126 -0.03924,0.279318 -0.06358,0.592885 -0.08754,1.127539 -0.09344,1.157036 -0.218555,1.105536 -0.03699,-0.01527 -0.05191,-0.04023 -0.04891,-0.08209 0.0023,-0.03316 0.03073,-0.367934 0.063,-0.743921 0.07883,-0.918984 0.07853,-0.905864 0.01092,-0.916464 -0.0303,-0.0048 -0.06959,0.0032 -0.08771,0.01776 -0.01809,0.01456 -0.06156,0.388749 -0.09633,0.831636 -0.03478,0.442883 -0.07914,0.824415 -0.09864,0.847995 -0.0315,0.03796 -0.08991,0.03886 -0.134224,0.0016 -0.0084,-0.007 0.01308,-0.378657 0.04755,-0.825536 0.03448,-0.446887 0.05891,-0.82426 0.05411,-0.83886 -0.0174,-0.05268 -0.109273,-0.06793 -0.145903,-0.02428 -0.02088,0.02487 -0.05634,0.34666 -0.08288,0.750682 -0.06252,0.951996 -0.06079,0.937976 -0.121944,0.949096 -0.02743,0.005 -0.06463,-0.0032 -0.08243,-0.01815 -0.01937,-0.01636 -0.0084,-0.361205 0.02709,-0.861132 0.04864,-0.6854 0.05094,-0.839488 0.01206,-0.863638 -0.106708,-0.06636 -0.132681,0.03365 -0.177821,0.68278 -0.05427,0.780503 -0.07918,1.02298 -0.106703,1.03915 -0.02634,0.01546 -0.171475,0.0061 -2.925127,-0.186006 C 9.4515148,94.46574 8.5867644,94.405578 8.0452564,94.383295 l 0.05328,-0.507705 c 0.09966,-0.02815 0.193338,-0.05985 0.281394,-0.09534 0.259034,-0.104417 0.381481,-0.176994 0.853739,-0.504681 0.5850504,-0.405959 0.6746374,-0.445208 1.2899776,-0.567673 0.664477,-0.132245 0.536532,-0.132248 2.782278,-0.0026 3.356417,0.193746 4.470625,0.286826 7.470648,0.62473 1.997718,0.22502 3.932031,0.471656 4.001041,0.510226 0.07488,0.04182 0.09513,0.242887 0.05574,0.549059 z M 13.229179,93.743671 c 0.0081,-0.123999 -0.01449,-0.25098 -0.07133,-0.363876 -0.128753,-0.255817 -0.42276,-0.406345 -0.714409,-0.365855 -0.38278,0.05312 -0.63157,0.351972 -0.59939,0.719932 0.04693,0.536314 0.669995,0.834739 1.107639,0.530485 0.165346,-0.114956 0.263976,-0.314022 0.27749,-0.520686 z m -0.18329,-0.01181 c -0.0016,0.02951 -0.0058,0.05889 -0.01252,0.08788 -0.04524,0.196427 -0.24349,0.373086 -0.446898,0.398026 -0.250276,0.03069 -0.521771,-0.155644 -0.567231,-0.389275 -0.04301,-0.220988 -0.02755,-0.284683 0.108967,-0.447376 0.109365,-0.130355 0.136804,-0.149921 0.253293,-0.180521 0.165013,-0.04336 0.272431,-0.03687 0.389062,0.02331 0.176358,0.09099 0.286415,0.301382 0.275327,0.507951 z m -2.736435,-1.177125 -3.3e-5,3.22e-4 -3.3e-5,3.23e-4 -3.22e-4,-3.3e-5 -3.2e-5,3.22e-4 -3.55e-4,2.89e-4 c -0.008,0.0081 -0.07689,0.02789 -0.160165,0.04553 -0.2772572,0.05879 -0.5181222,0.181907 -0.9445996,0.483072 -0.24165,0.170592 -0.422692,0.282644 -0.453492,0.280544 -0.02818,-0.0019 -0.153592,-0.06529 -0.278828,-0.140951 -0.185283,-0.11194 -0.253639,-0.165007 -0.277594,-0.258614 l 0.04961,-0.471636 c 0.0044,-0.0089 0.009,-0.0144 0.01259,-0.01499 l 3.22e-4,3.2e-5 c 0.0081,9e-5 0.07819,0.0065 0.155713,0.01422 0.07751,0.0077 0.391306,0.0155 0.697454,0.0176 0.3060334,0.0021 0.7009184,0.01012 0.8777044,0.01772 l 3.22e-4,3.2e-5 c 0.1764692,0.0076 0.3215572,0.01923 0.3217372,0.02623 z m -1.7239326,0.950422 -0.169489,0.07321 c -0.09961,0.04308 -0.196927,0.07927 -0.297847,0.109935 l 0.04634,-0.442684 c 0.143693,0.08532 0.254731,0.15205 0.304071,0.183866 z" />
      <path
         style="fill:#ffffff;fill-opacity:1;fill-rule:evenodd;stroke:none;stroke-width:0.298303;stroke-linecap:round;stroke-linejoin:round;paint-order:stroke fill markers"
         d="m 412.35208,314.80292 c -1.14845,0.16909 -2.63732,-0.23458 -3.58349,0.53434 -0.60495,6.16804 -0.41051,12.40019 -0.55794,18.59497 -0.0793,20.97923 -0.2655,41.99549 1.33775,62.9282 0.50944,4.3611 1.95767,8.78968 5.04082,12.02637 1.85701,2.06009 4.56003,6.68892 4.56003,6.68892 l 3.04643,-0.0158 c 0,0 -0.80262,-23.50348 -1.29424,-35.1183 -1.73677,-0.34421 -3.70531,-0.0747 -5.52101,-0.15864 -1.63971,-0.1341 -3.50138,0.28106 -5.03053,-0.32009 0.54108,-0.70158 1.78578,-0.29064 2.56489,-0.52413 2.53293,-0.25772 5.1659,-0.0781 7.6476,-0.54544 0.69831,-0.73066 -0.55961,-0.96064 -1.08042,-0.85349 -2.97693,-0.15359 -6.00859,0.25973 -8.95577,-0.12658 -0.22518,-0.75693 1.1611,-0.4476 1.56413,-0.59084 2.82698,-0.20955 5.71216,-0.088 8.50235,-0.56056 0.65629,-0.73513 -0.88878,-0.79656 -1.306,-0.79472 -3.02439,-0.24462 -6.13166,0.22337 -9.10901,-0.3508 0.0539,-0.70075 1.30204,-0.3882 1.81818,-0.53433 2.81904,-0.25854 5.7278,0.13758 8.49738,-0.47647 0.65439,-0.53013 -0.45826,-0.86421 -0.90006,-0.70883 -3.09797,-0.24696 -6.26446,0.18029 -9.32735,-0.30063 -0.42277,-0.7838 1.11076,-0.65416 1.54469,-0.7138 2.84344,-0.13523 5.78197,0.11661 8.56202,-0.50178 0.61676,-0.69138 -0.59396,-1.01704 -1.11704,-0.86886 -3.10796,-0.14273 -6.29724,0.22999 -9.36127,-0.13924 0.0686,-1.05233 1.59976,-0.43688 2.2696,-0.68764 2.73732,-0.19602 5.529,-0.044 8.23538,-0.44748 0.55493,-0.75707 -0.99616,-0.71661 -1.39732,-0.75358 -2.9787,-0.22828 -6.02436,0.19325 -8.96752,-0.28526 -0.41969,-0.80982 1.01653,-0.61916 1.43529,-0.67266 2.86233,-0.24878 5.83389,0.25595 8.633,-0.44799 0.68785,-0.64498 -0.66842,-1.02889 -1.15411,-0.91135 -2.92155,-0.1659 -5.91034,0.45172 -8.78896,-0.0321 -0.69605,-0.36968 0.13162,-0.8072 0.58587,-0.69572 3.00786,-0.32122 6.08173,-0.0804 9.07918,-0.4706 0.72276,-0.0981 0.4043,-1.04322 -0.27169,-0.82772 -3.19061,-0.32491 -6.46016,0.15398 -9.61758,-0.31554 -0.12322,-0.81846 1.23691,-0.59103 1.73738,-0.70822 2.70927,-0.23668 5.51801,0.25829 8.17133,-0.36949 0.68747,-0.50505 -0.3855,-0.89067 -0.83767,-0.74861 -3.02955,-0.21964 -6.11866,0.18926 -9.1176,-0.26852 -0.62876,-0.81302 0.92141,-0.5298 1.3503,-0.64238 2.79768,-0.29328 5.68069,-0.0431 8.43138,-0.61526 0.59326,-0.54797 -0.46758,-0.95996 -0.92673,-0.80602 -2.98643,-0.19546 -6.0493,0.22129 -8.98921,-0.30062 -0.2014,-0.59785 1.03855,-0.46055 1.42896,-0.54654 2.79576,-0.29371 5.67585,0.0586 8.42866,-0.49094 0.62128,-0.51414 -0.45996,-0.88388 -0.88423,-0.74861 -2.87957,-0.23502 -5.84486,0.1414 -8.6791,-0.35306 -0.19641,-0.72763 1.06019,-0.42279 1.45292,-0.55061 2.69091,-0.24102 5.49938,0.14121 8.12488,-0.52891 0.44575,-0.75803 -0.98872,-0.7231 -1.42987,-0.74183 -2.77583,-0.22631 -5.65587,0.20439 -8.3708,-0.32729 -0.52547,-0.55575 0.80435,-0.52804 1.07139,-0.594 2.82669,-0.32174 5.75864,0.054 8.5489,-0.49275 0.45479,-0.61756 -0.76856,-0.72849 -1.13919,-0.7016 -2.81254,-0.24648 -5.7234,0.15957 -8.48291,-0.40188 -0.0525,-0.72272 1.26305,-0.48921 1.7232,-0.63012 2.52192,-0.25792 5.14261,0.22741 7.61185,-0.32825 0.68361,-0.7304 -0.59319,-1.15721 -1.17988,-1.03295 -2.69094,-0.15849 -5.44919,0.34416 -8.10318,-0.0741 -0.66269,-0.42497 0.31653,-1.02753 0.78941,-0.76684 2.74103,-0.24464 5.58746,0.0736 8.27123,-0.52922 0.62817,-0.68404 -0.70038,-0.83137 -1.13964,-0.75268 -2.68123,-0.18843 -5.45967,0.26028 -8.08962,-0.31282 0.12489,-0.7576 1.46374,-0.3764 2.03201,-0.56553 2.4188,-0.22661 4.96362,0.0429 7.31569,-0.46156 0.39851,-0.78296 -1.09919,-0.64232 -1.51721,-0.71623 -2.55872,-0.22117 -5.23921,0.22591 -7.72561,-0.31265 -0.0593,-0.9066 1.37102,-0.43005 1.91737,-0.64598 2.3171,-0.24688 4.76136,0.0333 7.00991,-0.49909 0.28706,-0.92408 -1.21331,-0.87389 -1.78021,-0.88107 -2.37939,-0.17191 -4.87253,0.30194 -7.19137,-0.27123 0.58297,-0.79786 1.97278,-0.3884 2.84742,-0.59687 1.95735,-0.21926 4.07479,0.15656 5.94244,-0.52379 0.50113,-0.74934 -0.93613,-0.67466 -1.34443,-0.6912 -2.45027,-0.18424 -5.00922,0.24579 -7.39796,-0.28706 -0.0612,-0.75557 1.19397,-0.56428 1.68392,-0.67673 2.25673,-0.15348 4.64897,0.15953 6.81933,-0.51038 0.56521,-0.77694 -0.63278,-1.01729 -1.18078,-0.88513 -2.42327,-0.11757 -4.92378,0.31076 -7.3062,-0.12794 -0.5815,-0.8918 0.93789,-0.59682 1.4218,-0.70049 2.31502,-0.25775 4.75187,0.11094 6.99918,-0.48752 0.32392,-0.74648 -1.08843,-0.56063 -1.50192,-0.63755 -2.28044,-0.19139 -4.68061,0.14748 -6.89013,-0.41891 -0.34019,-0.50343 0.89504,-0.4044 1.16652,-0.50131 2.32332,-0.32076 4.78343,0.10395 7.03566,-0.53436 0.45715,-0.79576 -1.08571,-0.66868 -1.51621,-0.74545 -2.23415,-0.26729 -4.6357,0.0245 -6.77141,-0.59175 0.5907,-0.77331 1.96572,-0.35511 2.83126,-0.53976 1.80749,-0.12642 3.72746,0.14627 5.47173,-0.31418 0.26336,-0.86009 -1.21424,-0.71082 -1.70517,-0.82184 -2.09303,-0.24987 -4.31719,0.14497 -6.3415,-0.3716 -0.0808,-0.84198 1.32935,-0.36555 1.82625,-0.54068 1.90881,-0.18174 3.95142,0.20069 5.79051,-0.34129 0.30508,-0.89246 -1.18712,-0.7188 -1.70341,-0.79795 -1.9754,-0.24384 -4.13156,0.16424 -5.99924,-0.57089 0.003,-0.65056 1.17568,-0.30061 1.58434,-0.45576 1.96179,-0.1442 4.12706,0.21176 5.95919,-0.57855 0.039,-0.8273 -1.31808,-0.61038 -1.86479,-0.73305 -1.85758,-0.22718 -3.86587,0.25148 -5.64167,-0.31256 -0.32948,-0.88568 1.17644,-0.39806 1.60662,-0.60712 1.81835,-0.25048 3.81483,0.14946 5.53683,-0.49184 0.18528,-0.80716 -1.25479,-0.52533 -1.72189,-0.65413 -1.78082,-0.20594 -3.76644,0.12166 -5.41342,-0.52349 -0.24755,-0.52478 0.85833,-0.3854 1.13964,-0.46879 1.91342,-0.22602 4.03701,0.31337 5.82977,-0.48867 0.43244,-0.72165 -0.93765,-0.62016 -1.31324,-0.65187 -1.82208,-0.18214 -3.80448,0.29063 -5.53231,-0.38742 -0.55671,-0.52387 0.8314,-0.50817 1.10594,-0.58458 1.78436,-0.31521 3.7615,0.0445 5.44396,-0.64005 0.20179,-0.77912 -1.18057,-0.52214 -1.61612,-0.62746 -1.59364,-0.17998 -3.33468,0.17786 -4.8402,-0.37159 -0.18239,-0.79946 1.21437,-0.53577 1.66654,-0.65424 1.53148,-0.19308 3.29277,0.29867 4.69846,-0.4185 0.10504,-0.88365 -1.36296,-0.47832 -1.88325,-0.65954 -1.45237,-0.21347 -3.11312,0.12739 -4.44062,-0.43309 -0.008,-0.85268 1.41661,-0.35468 1.92533,-0.57366 1.3444,-0.19322 2.91225,0.10253 4.14765,-0.43896 0.0958,-0.80948 -1.32231,-0.55794 -1.83401,-0.72194 -1.4129,-0.2418 -3.05863,0.0798 -4.33887,-0.5818 0.56335,-0.73575 1.82113,-0.36685 2.64258,-0.54783 0.96415,-0.19342 2.26198,0.2349 3.06106,-0.41189 -0.0255,-0.95497 -1.50699,-0.52867 -2.10796,-0.69301 -1.08551,-0.15822 -2.38082,0.17868 -3.36016,-0.28254 -0.0484,-1.00945 1.41106,-0.50108 1.99666,-0.68081 1.01476,-0.22478 2.43393,0.29896 3.26668,-0.42719 0.0931,-1.08694 -1.56041,-0.87615 -2.24932,-0.97931 -0.34884,-0.0134 -0.6981,-0.0108 -1.0471,-0.008 z m 2.99263,70.09057 c 2.95283,-0.17527 5.14373,3.46409 3.51477,5.94911 -1.23574,2.60336 -5.46301,3.17742 -6.90522,0.45523 -1.56601,-2.28216 -0.27295,-5.88139 2.54781,-6.32342 0.2773,-0.0547 0.56009,-0.0806 0.84264,-0.0809 z"
         id="path6"
         transform="matrix(-0.01677632,0.16488849,-0.16488849,-0.01677632,83.644847,31.740271)" />
      <path
         style="fill:#ffffff;fill-opacity:1;fill-rule:evenodd;stroke:none;stroke-width:0.298303;stroke-linecap:round;stroke-linejoin:round;paint-order:stroke fill markers"
         d="m 409.68085,403.20193 c 0.34649,4.002 0.92673,12.32812 0.92673,12.32812 l 3.28783,-0.009 c 0,0 1.1166,-1.31786 1.82497,-3.71728 -2.09818,-2.76397 -4.69779,-5.29403 -5.8474,-8.64791 z"
         id="path7"
         transform="matrix(-0.01677632,0.16488849,-0.16488849,-0.01677632,83.644847,31.740271)" />
    </g>
  </g>
</svg>
