<?xml version="1.0" encoding="UTF-8" standalone="no"?>
<!-- Created with Inkscape (http://www.inkscape.org/) -->

<svg
   width="76.136436mm"
   height="25.037748mm"
   viewBox="0 0 76.136436 25.037748"
   version="1.1"
   id="svg1"
   xmlns="http://www.w3.org/2000/svg"
   xmlns:svg="http://www.w3.org/2000/svg">
  <defs
     id="defs1" />
  <g
     id="layer1"
     transform="translate(-28.4856,-45.835962)">
    <path
       id="rect1"
       style="fill:#1a1a1a;fill-opacity:1;fill-rule:evenodd;stroke:none;stroke-width:0.341;stroke-linecap:round;stroke-linejoin:round;stroke-opacity:0.952448;paint-order:stroke fill markers"
       d="m -54.621989,-45.835962 v -0.03772 H -28.4856 V -70.87371 h -27.245882 l -0.03049,0.03772 h -48.860068 v 0.68988 c 1.64393,0.130988 7.392988,0.350828 7.393348,0.586011 h -7.393348 v 0.58136 c 1.75831,0.133875 7.584518,0.365267 7.585068,0.613399 h -7.585068 v 0.555005 c 1.87159,0.136539 7.775101,0.378805 7.776271,0.639754 h -7.776271 v 0.52865 c 1.98544,0.139064 7.966966,0.392266 7.96799,0.666109 h -7.96799 v 0.502295 l 0.045,0.0031 c 2.07398,0.142272 8.114288,0.405334 8.11475,0.68988 h -8.15971 v 0.475423 c 0.0472,0.0031 0.094,0.0065 0.14056,0.0098 2.13337,0.146327 8.210323,0.416832 8.210869,0.709517 H -104.622 v 0.450619 c 0.0797,0.0049 0.15862,0.01015 0.23668,0.0155 2.19235,0.150413 8.305536,0.428357 8.305952,0.729154 H -104.622 v 0.424264 c 0.11229,0.0068 0.22309,0.01375 0.33228,0.02119 2.25174,0.154468 8.401575,0.439855 8.402072,0.748791 H -104.622 v 0.399459 c 0.14506,0.0085 0.28777,0.01779 0.42788,0.02739 2.31113,0.158522 8.497609,0.451354 8.498191,0.768428 H -104.622 v 0.373621 c 0.17819,0.0102 0.35299,0.02075 0.524,0.03256 2.37012,0.162608 8.59282,0.463396 8.593274,0.788582 H -104.622 v 0.348816 c 0.21122,0.01169 0.41796,0.02437 0.6196,0.03824 1.9566,0.134221 6.397351,0.360511 8.052223,0.617533 0.0545,-0.05494 0.118657,-0.104887 0.192753,-0.149345 0.261302,-0.16798 0.746476,-0.298385 1.455726,-0.391707 1.71713,-0.298631 2.678235,-0.466516 2.883544,-0.503845 l 1.819528,-0.307992 c 0,-0.970552 -0.0092,-1.987618 -0.02791,-3.051493 -0.03733,-1.063875 -0.08405,-1.997257 -0.140043,-2.799829 -0.07466,-1.082539 -0.205062,-1.913239 -0.391707,-2.491838 -0.186645,-0.578598 -0.289327,-0.905127 -0.307992,-0.979785 0,-0.186645 0.121164,-0.35453 0.363802,-0.503845 0.223974,-0.16798 0.438579,-0.252181 0.643889,-0.252181 0.111986,0 0.205428,0.03748 0.280086,0.112138 0.07466,0.05599 0.13986,0.158675 0.195854,0.307991 0.111986,0.261303 0.22391,0.746475 0.335897,1.455725 0.09332,0.70925 0.168282,1.493229 0.224275,2.351795 0.05599,0.765243 0.102714,1.651904 0.140043,2.659786 0.01867,1.026545 0.02791,2.015372 0.02791,2.96726 1.04521,-0.16798 2.118237,-0.373345 3.219441,-0.615983 0.989217,-0.205309 1.577072,-0.307474 1.763717,-0.307474 0.190219,0 0.374114,0.04684 0.550871,0.141076 -0.03378,-0.534441 -0.06928,-0.96662 -0.105937,-1.296561 -0.07466,-0.727915 -0.205063,-1.297288 -0.391707,-1.707906 -0.205309,-0.410618 -0.401433,-0.737147 -0.588078,-0.979786 -0.186645,-0.223973 -0.280086,-0.364136 -0.280086,-0.420129 0,-0.298631 0.0842,-0.531718 0.252181,-0.699699 0.16798,-0.16798 0.401067,-0.252181 0.699699,-0.252181 0.373289,0 0.718817,0.392248 1.036112,1.176156 0.298632,0.783907 0.484998,1.595609 0.559656,2.43551 0.07466,0.802572 0.130619,2.426493 0.167948,4.871537 0.01867,0.391954 0.02842,0.783685 0.02842,1.175639 0,0.410618 0.0092,0.756145 0.0279,1.036113 0.54127,-1.287849 1.278528,-2.753125 2.211752,-4.395598 0.933223,-1.642473 1.875846,-3.051787 2.827734,-4.227649 0.933224,-1.175861 1.698204,-1.763716 2.295467,-1.763716 0.615928,0 1.026658,0.327046 1.231966,0.980302 0.186645,0.653256 0.280087,1.688804 0.280087,3.107303 0,1.325178 -0.168402,2.827934 -0.504362,4.507736 -0.354626,1.679802 -0.755598,2.958194 -1.203544,3.835424 -0.186645,0.391954 -0.345289,0.653281 -0.47594,0.783932 -0.130652,0.149316 -0.280055,0.223759 -0.448035,0.223759 -0.466612,0 -0.699699,-0.09344 -0.699699,-0.280086 0,-0.09332 0.09292,-0.307928 0.27957,-0.643889 0.50394,-0.933223 0.942909,-2.052972 1.316198,-3.359485 0.37329,-1.306512 0.559656,-3.060837 0.559656,-5.263244 0,-1.474493 -0.205365,-2.211752 -0.615983,-2.211752 -0.485277,0 -1.138334,0.531894 -1.95957,1.595769 -0.839902,1.082538 -1.670601,2.370172 -2.491838,3.86333 -0.821237,1.493157 -1.446572,2.790548 -1.875854,3.891752 -0.149316,0.373289 -0.317201,0.951904 -0.503846,1.735811 -0.05599,0.317296 -0.111954,0.541143 -0.167948,0.671794 -0.05599,0.149316 -0.121196,0.224276 -0.195854,0.224276 -0.205309,0 -0.429155,-0.0842 -0.671793,-0.252181 -0.242638,-0.16798 -0.364319,-0.345106 -0.364319,-0.531751 0,-0.895895 -0.02772,-2.435614 -0.08372,-4.619356 -0.02752,-0.798195 -0.05624,-1.506336 -0.0863,-2.124418 -0.17145,0.05867 -0.431297,0.08785 -0.778763,0.08785 -0.279968,0 -0.69018,0.04672 -1.23145,0.140043 -0.541269,0.111987 -0.886796,0.18643 -1.036112,0.223759 -1.25052,0.242638 -2.099701,0.401282 -2.547648,0.47594 0,0.391954 0.01848,0.905366 0.05581,1.539957 0.03733,0.858566 0.05633,1.511624 0.05633,1.959571 0,0.727914 -0.019,1.288047 -0.05633,1.68 -0.05599,0.410619 -0.148918,0.774627 -0.279569,1.091923 -0.149316,0.37329 -0.429641,0.559656 -0.840259,0.559656 -0.167981,0 -0.279904,-0.02772 -0.335897,-0.08372 -0.05599,-0.05599 -0.08372,-0.158675 -0.08372,-0.307991 0,-0.111987 0.0462,-0.438515 0.139527,-0.979785 0.09332,-0.54127 0.140043,-1.260047 0.140043,-2.155941 0,-0.690585 -0.01848,-1.465323 -0.05581,-2.323889 l -0.02791,-0.75551 c -0.839901,0.130652 -2.501301,0.475662 -4.983675,1.035596 -0.460888,0.115225 -0.341031,0.525524 -1.218014,0.470256 h -8.878013 v 0.299723 c 0.27774,0.01437 0.54859,0.03014 0.81132,0.04806 2.54788,0.174803 8.880108,0.497918 8.880597,0.847493 h -9.691917 v 0.273886 c 0.31112,0.01575 0.61397,0.03366 0.90692,0.05374 2.60727,0.178858 8.976143,0.509417 8.976717,0.867131 h -9.883637 v 0.249597 c 0.34449,0.01693 0.67937,0.03684 1.00253,0.05891 2.66665,0.182913 9.07217,0.520915 9.072826,0.886767 h -10.075356 v 0.224276 c 0.37823,0.01825 0.74533,0.03926 1.09864,0.06356 2.72565,0.186998 9.167394,0.532957 9.167919,0.906922 h -10.266559 v 0.199987 c 0.41176,0.01938 0.81093,0.04238 1.19424,0.06873 2.78504,0.191053 9.263429,0.543938 9.264039,0.926042 h -10.458279 v 0.1757 c 0.44523,0.02032 0.87648,0.04512 1.28985,0.07338 2.84442,0.195108 9.359456,0.555438 9.360148,0.945679 h -10.649998 v 0.151929 c 0.47906,0.02139 0.94259,0.04715 1.38596,0.07751 2.90341,0.199193 9.454676,0.567479 9.455241,0.965833 h -10.841201 v 0.126607 c 0.51277,0.02245 1.00844,0.05019 1.48157,0.08268 2.9628,0.203248 9.550707,0.578977 9.551351,0.98547 h -11.032921 v 1.021126 z m 6.590295,-1.774052 h -2.813781 c -0.0915,0 -0.195915,-0.06856 -0.179834,-0.182934 l 0.411344,-2.927987 c 0.0193,-0.137246 0.127337,-0.251664 0.264583,-0.251664 h 2.790528 c 0.114372,0 0.209466,0.137155 0.190169,0.274402 l -0.398942,2.836519 c -0.01608,0.114372 -0.149695,0.251664 -0.264067,0.251664 z m 19.143018,-0.226343 h -3.225126 c -0.160121,0 -0.228927,-0.06842 -0.228927,-0.205672 v -4.163053 c 0,-0.160121 -0.04534,-0.206189 -0.06821,-0.206189 -0.02287,0 -0.114554,0.04596 -0.228926,0.137459 -0.388865,0.365991 -0.938095,0.663526 -1.601453,0.663526 -0.960725,0 -2.195731,-0.572243 -2.195731,-2.356446 v -11.230839 c 0,-0.06862 0.06884,-0.137459 0.137459,-0.137459 h 3.156396 c 0.0915,0 0.160197,0.0687 0.160197,0.160197 v 9.469706 c 0,0.343116 0.182874,0.457853 0.365869,0.457853 0.182996,0 0.36587,-0.114737 0.36587,-0.457853 v -9.446969 c 0,-0.0915 0.0687,-0.182934 0.160197,-0.182934 h 3.271118 c 0.0915,0 0.182934,0.114174 0.182934,0.205672 v 17.0186 c 0,0.205869 -0.09154,0.274401 -0.251664,0.274401 z m -24.280172,-0.695048 h -5.10098 c -2.012947,0 -4.196274,-1.555311 -3.803902,-4.345988 0.173672,-1.235217 0.720744,-3.49968 2.938838,-3.819921 l 0.0067,-0.04599 c -2.678111,-0.800604 -2.469003,-2.287202 -2.140954,-4.62039 0.0168,-0.119504 0.01176,-0.239109 -0.03824,-0.35295 -0.0594,1.129056 -0.373292,2.512745 -0.941545,4.150651 -0.634592,1.829118 -1.437053,3.415558 -2.407605,4.759399 -0.970552,1.343842 -1.940898,2.015381 -2.91145,2.015381 -0.410618,0 -0.765386,-0.148886 -1.064017,-0.447518 -0.16798,-0.16798 -0.326624,-0.392344 -0.47594,-0.67231 -0.149316,-0.279968 -0.224276,-0.531536 -0.224276,-0.75551 0,-0.317296 0.04672,-0.690545 0.140043,-1.119828 0.07466,-0.410619 0.158859,-0.615983 0.252181,-0.615983 0.186645,0 0.307809,0.102682 0.363802,0.307991 0.05599,0.20531 0.09347,0.466636 0.112138,0.783932 0.05599,0.485276 0.111955,0.802564 0.167948,0.95188 0.05599,0.16798 0.140194,0.251664 0.252181,0.251664 0.87723,0 1.726412,-0.616094 2.547648,-1.847949 0.821236,-1.21319 1.492776,-2.631229 2.015381,-4.255038 0.522606,-1.605144 0.783932,-2.846573 0.783932,-3.723803 0,-1.231855 -0.410213,-1.84795 -1.23145,-1.84795 -0.597263,0 -1.138914,0.149404 -1.62419,0.448035 -0.503941,0.298631 -1.026594,0.718602 -1.567863,1.259872 -1.007881,1.026546 -1.791344,1.913207 -2.351278,2.659786 -0.03733,0.05599 -0.140008,0.196156 -0.307991,0.420129 -0.186645,0.242638 -0.317567,0.363802 -0.392224,0.363802 -0.223974,0 -0.335897,-0.0842 -0.335897,-0.252181 0,-0.111987 0.196124,-0.456997 0.588078,-1.035596 0.373289,-0.578598 0.755779,-1.101251 1.147733,-1.567863 0.970552,-1.175861 1.847974,-2.081004 2.631881,-2.715596 0.765243,-0.634592 1.567704,-0.95188 2.407605,-0.95188 0.709249,0 1.297105,0.308047 1.763717,0.923975 0.13342,0.183452 0.246866,0.375148 0.340547,0.575158 0.785197,-1.946542 2.550842,-2.078943 3.192054,-2.078943 1.646956,0 2.58435,1.143663 2.282031,3.293856 l -0.495577,3.522783 c -0.102917,0.73198 0.165927,1.098124 0.417545,1.098124 0.137247,0 0.176442,-0.114281 0.198955,-0.274402 l 1.028877,-7.319967 c 0.0193,-0.137246 0.153039,-0.274402 0.31316,-0.274402 h 3.911389 c 0.160121,0 0.25879,0.114145 0.233061,0.29714 l -2.332158,16.584001 c -0.02251,0.16012 -0.152658,0.274401 -0.289905,0.274401 z m 12.065414,-3.078881 c -2.516184,0 -3.911389,-1.578383 -3.911389,-3.362586 v -6.199105 c 0,-0.182995 -0.06882,-0.182934 -0.572059,-0.182934 -0.01888,0 -0.0367,-0.0039 -0.05323,-0.01085 l -1.322917,9.409761 c -0.02251,0.160121 -0.130437,0.274402 -0.267684,0.274402 h -3.247864 c -0.137246,0 -0.212968,-0.114555 -0.196887,-0.228927 l 1.872237,-13.312882 c 0.01287,-0.0915 0.09402,-0.182935 0.185519,-0.182935 h 3.362585 c 0.0915,0 0.166861,0.114175 0.153996,0.205673 l -0.103353,0.735872 c 0.41042,-0.542574 1.021609,-0.938961 1.721859,-0.938961 1.052222,0 1.464009,0.343087 1.807125,0.869198 0.114372,0.160121 0.183177,0.206189 0.228926,0.206189 0.02287,0 0.114418,-0.04593 0.251664,-0.228927 0.251619,-0.343116 0.800332,-0.77773 1.600936,-0.77773 0.960725,0 2.379183,0.800744 2.379183,3.088183 v 1.692404 c 0,1.807077 -1.212558,2.767744 -2.47065,3.293855 -1.669831,0.709107 -1.761133,0.961046 -1.761133,1.76165 0,0.320242 0.137262,0.480074 0.343132,0.480074 0.36599,0 0.365869,-0.136852 0.365869,-1.189075 0,-0.114372 0.09182,-0.183451 0.206189,-0.183451 l 3.042191,0.160197 c 0.160121,0 0.160197,0.114495 0.160197,1.189591 0,1.807078 -1.395509,3.431316 -3.774446,3.431316 z m -15.781983,-1.724443 c 0.114372,0 0.192577,-0.06894 0.211874,-0.206189 l 0.296106,-2.104264 c 0.02251,-0.160121 -0.01689,-0.205672 -0.131258,-0.205672 -0.548986,0 -0.639089,0.64018 -0.787033,1.692403 -0.07397,0.526111 0.204442,0.823722 0.410311,0.823722 z m 15.576311,-5.938656 c 0.137246,0 0.594279,-0.205763 0.594279,-0.709 v -1.69292 c 0,-0.274493 -0.182874,-0.388607 -0.36587,-0.388607 -0.182995,0 -0.365869,0.114114 -0.365869,0.388607 v 2.218986 c 0,0.0915 0.04596,0.16006 0.13746,0.182934 z"
       transform="scale(-1)" />
  </g>
</svg>
